<svg id="visual" viewBox="0 0 960 360" width="960" height="360" xmlns="http://www.w3.org/2000/svg" xmlns:xlink="http://www.w3.org/1999/xlink" version="1.1"><rect x="0" y="0" width="960" height="360" fill="#050619"></rect><path d="M0 147L22.8 143.3C45.7 139.7 91.3 132.3 137 126C182.7 119.7 228.3 114.3 274 108.5C319.7 102.7 365.3 96.3 411.2 99.2C457 102 503 114 548.8 121.2C594.7 128.3 640.3 130.7 686 128.8C731.7 127 777.3 121 823 119.8C868.7 118.7 914.3 122.3 937.2 124.2L960 126L960 0L937.2 0C914.3 0 868.7 0 823 0C777.3 0 731.7 0 686 0C640.3 0 594.7 0 548.8 0C503 0 457 0 411.2 0C365.3 0 319.7 0 274 0C228.3 0 182.7 0 137 0C91.3 0 45.7 0 22.8 0L0 0Z" fill="#1db954"></path><path d="M0 117L22.8 110.5C45.7 104 91.3 91 137 84.5C182.7 78 228.3 78 274 78.8C319.7 79.7 365.3 81.3 411.2 88.8C457 96.3 503 109.7 548.8 113.2C594.7 116.7 640.3 110.3 686 106C731.7 101.7 777.3 99.3 823 95.2C868.7 91 914.3 85 937.2 82L960 79L960 0L937.2 0C914.3 0 868.7 0 823 0C777.3 0 731.7 0 686 0C640.3 0 594.7 0 548.8 0C503 0 457 0 411.2 0C365.3 0 319.7 0 274 0C228.3 0 182.7 0 137 0C91.3 0 45.7 0 22.8 0L0 0Z" fill="#7ba921"></path><path d="M0 83L22.8 82C45.7 81 91.3 79 137 74.3C182.7 69.7 228.3 62.3 274 58.8C319.7 55.3 365.3 55.7 411.2 57.5C457 59.3 503 62.7 548.8 69C594.7 75.3 640.3 84.7 686 88.3C731.7 92 777.3 90 823 89.8C868.7 89.7 914.3 91.3 937.2 92.2L960 93L960 0L937.2 0C914.3 0 868.7 0 823 0C777.3 0 731.7 0 686 0C640.3 0 594.7 0 548.8 0C503 0 457 0 411.2 0C365.3 0 319.7 0 274 0C228.3 0 182.7 0 137 0C91.3 0 45.7 0 22.8 0L0 0Z" fill="#a99500"></path><path d="M0 59L22.8 56.2C45.7 53.3 91.3 47.7 137 44.5C182.7 41.3 228.3 40.7 274 40.3C319.7 40 365.3 40 411.2 42.7C457 45.3 503 50.7 548.8 51.5C594.7 52.3 640.3 48.7 686 49.3C731.7 50 777.3 55 823 58.8C868.7 62.7 914.3 65.3 937.2 66.7L960 68L960 0L937.2 0C914.3 0 868.7 0 823 0C777.3 0 731.7 0 686 0C640.3 0 594.7 0 548.8 0C503 0 457 0 411.2 0C365.3 0 319.7 0 274 0C228.3 0 182.7 0 137 0C91.3 0 45.7 0 22.8 0L0 0Z" fill="#d27900"></path><path d="M0 26L22.8 24.5C45.7 23 91.3 20 137 19.7C182.7 19.3 228.3 21.7 274 25.3C319.7 29 365.3 34 411.2 34.8C457 35.7 503 32.3 548.8 31.7C594.7 31 640.3 33 686 33C731.7 33 777.3 31 823 29.8C868.7 28.7 914.3 28.3 937.2 28.2L960 28L960 0L937.2 0C914.3 0 868.7 0 823 0C777.3 0 731.7 0 686 0C640.3 0 594.7 0 548.8 0C503 0 457 0 411.2 0C365.3 0 319.7 0 274 0C228.3 0 182.7 0 137 0C91.3 0 45.7 0 22.8 0L0 0Z" fill="#fa4616"></path></svg>